<?xml version="1.0" encoding="UTF-8" standalone="no"?>
<!-- Created with Inkscape (http://www.inkscape.org/) -->

<svg
   xmlns:dc="http://purl.org/dc/elements/1.1/"
   xmlns:cc="http://creativecommons.org/ns#"
   xmlns:rdf="http://www.w3.org/1999/02/22-rdf-syntax-ns#"
   xmlns:svg="http://www.w3.org/2000/svg"
   xmlns="http://www.w3.org/2000/svg"
   xmlns:sodipodi="http://sodipodi.sourceforge.net/DTD/sodipodi-0.dtd"
   xmlns:inkscape="http://www.inkscape.org/namespaces/inkscape"
   width="64"
   height="64"
   viewBox="0 0 16.933333 16.933334"
   version="1.1"
   id="svg8"
   inkscape:version="0.92.3 (2405546, 2018-03-11)"
   sodipodi:docname="ontop.svg"
   inkscape:export-xdpi="96"
   inkscape:export-ydpi="96">
  <defs
     id="defs2" />
  <sodipodi:namedview
     id="base"
     pagecolor="#ffffff"
     bordercolor="#666666"
     borderopacity="1.0"
     inkscape:pageopacity="0.0"
     inkscape:pageshadow="2"
     inkscape:zoom="8"
     inkscape:cx="30.000797"
     inkscape:cy="16.077173"
     inkscape:document-units="mm"
     inkscape:current-layer="layer5"
     showgrid="true"
     units="px"
     inkscape:pagecheckerboard="true"
     inkscape:window-width="1306"
     inkscape:window-height="1006"
     inkscape:window-x="1928"
     inkscape:window-y="8"
     inkscape:window-maximized="0"
     showguides="true"
     inkscape:guide-bbox="true"
     inkscape:measure-start="21,13"
     inkscape:measure-end="21,-7">
    <sodipodi:guide
       position="8.4666667,8.4666667"
       orientation="0,1"
       id="guide1417"
       inkscape:locked="false"
       inkscape:label=""
       inkscape:color="rgb(0,0,255)" />
    <inkscape:grid
       type="xygrid"
       id="grid1419" />
    <sodipodi:guide
       position="8.4666667,8.4666667"
       orientation="1,0"
       id="guide1421"
       inkscape:locked="false"
       inkscape:label=""
       inkscape:color="rgb(0,0,255)" />
  </sodipodi:namedview>
  <metadata
     id="metadata5">
    <rdf:RDF>
      <cc:Work
         rdf:about="">
        <dc:format>image/svg+xml</dc:format>
        <dc:type
           rdf:resource="http://purl.org/dc/dcmitype/StillImage" />
        <dc:title></dc:title>
      </cc:Work>
    </rdf:RDF>
  </metadata>
  <g
     inkscape:label="maximize"
     inkscape:groupmode="layer"
     id="g829"
     transform="translate(0,-280.06665)"
     style="display:none">
    <circle
       style="opacity:0.9;fill:#29daff;fill-opacity:1;fill-rule:nonzero;stroke:none;stroke-width:8;stroke-miterlimit:4.0999999;stroke-dasharray:none;paint-order:markers stroke fill"
       id="circle827"
       cx="8.4666662"
       cy="288.53333"
       r="5" />
  </g>
  <g
     style="display:none"
     transform="translate(0,-280.06665)"
     id="g1550"
     inkscape:groupmode="layer"
     inkscape:label="ring">
    <path
       style="opacity:0.9;fill:#000000;fill-opacity:1;fill-rule:nonzero;stroke:none;stroke-width:8;stroke-miterlimit:4.0999999;stroke-dasharray:none;paint-order:markers stroke fill"
       d="m 8.4666662,288.53356 a 5,5 0 0 0 -5.0002116,5.00021 5,5 0 0 0 5.0002116,5.00021 5,5 0 0 0 5.0002118,-5.00021 5,5 0 0 0 -5.0002118,-5.00021 z m 0,2.69493 a 2.3051996,2.3051996 0 0 1 2.3052858,2.30528 2.3051996,2.3051996 0 0 1 -2.3052858,2.30529 2.3051996,2.3051996 0 0 1 -2.3052857,-2.30529 2.3051996,2.3051996 0 0 1 2.3052857,-2.30528 z"
       id="circle1548"
       inkscape:connector-curvature="0" />
  </g>
  <g
     inkscape:groupmode="layer"
     id="layer5"
     inkscape:label="duo">
    <path
       inkscape:connector-curvature="0"
       style="display:inline;opacity:0.9;fill:#29daff;fill-opacity:1;fill-rule:nonzero;stroke:none;stroke-width:8;stroke-miterlimit:4.0999999;stroke-dasharray:none;paint-order:markers stroke fill"
       d="M 8.4666666,3.4664638 A 5.0000001,5.0000001 0 0 0 3.4664549,8.4666755 5.0000001,5.0000001 0 0 0 4.1434162,10.966782 5.0000001,5.0000001 0 0 1 8.4666666,8.4666755 5.0000001,5.0000001 0 0 1 12.791468,10.966782 5.0000001,5.0000001 0 0 0 13.466878,8.4666755 5.0000001,5.0000001 0 0 0 8.4666666,3.4664638 Z m 0,7.6951382 a 2.3051996,2.3051996 0 0 0 -2.2391399,1.769401 5.0000001,5.0000001 0 0 0 2.2391399,0.535884 5.0000001,5.0000001 0 0 0 2.2401734,-0.53175 2.3051996,2.3051996 0 0 0 -2.2401734,-1.773535 z"
       id="circle827-0" />
  </g>
</svg>
