<?xml version="1.0" encoding="UTF-8" standalone="no"?>
<svg
   xmlns:dc="http://purl.org/dc/elements/1.1/"
   xmlns:cc="http://creativecommons.org/ns#"
   xmlns:rdf="http://www.w3.org/1999/02/22-rdf-syntax-ns#"
   xmlns:svg="http://www.w3.org/2000/svg"
   xmlns="http://www.w3.org/2000/svg"
   xmlns:sodipodi="http://sodipodi.sourceforge.net/DTD/sodipodi-0.dtd"
   xmlns:inkscape="http://www.inkscape.org/namespaces/inkscape"
   width="64"
   height="64"
   viewBox="0 0 16.933333 16.933334"
   version="1.1"
   id="svg8"
   inkscape:version="1.0.1 (3bc2e813f5, 2020-09-07)"
   sodipodi:docname="ontop-hover.svg"
   inkscape:export-xdpi="96"
   inkscape:export-ydpi="96">
  <defs
     id="defs2" />
  <sodipodi:namedview
     id="base"
     pagecolor="#ffffff"
     bordercolor="#666666"
     borderopacity="1.0"
     inkscape:pageopacity="0.0"
     inkscape:pageshadow="2"
     inkscape:zoom="7.9195959"
     inkscape:cx="39.35846"
     inkscape:cy="29.623602"
     inkscape:document-units="mm"
     inkscape:current-layer="g829"
     showgrid="false"
     units="px"
     inkscape:pagecheckerboard="true"
     inkscape:window-width="1832"
     inkscape:window-height="1080"
     inkscape:window-x="1975"
     inkscape:window-y="0"
     inkscape:window-maximized="0"
     inkscape:document-rotation="0" />
  <metadata
     id="metadata5">
    <rdf:RDF>
      <cc:Work
         rdf:about="">
        <dc:format>image/svg+xml</dc:format>
        <dc:type
           rdf:resource="http://purl.org/dc/dcmitype/StillImage" />
        <dc:title></dc:title>
      </cc:Work>
    </rdf:RDF>
  </metadata>
  <g
     inkscape:label="maximize"
     inkscape:groupmode="layer"
     id="g829"
     transform="translate(0,-280.06665)"
     style="display:inline">
    <path
       style="opacity:1;fill:#00add1;fill-opacity:1;fill-rule:nonzero;stroke:none;stroke-width:30.23622131;stroke-miterlimit:4.0999999;stroke-dasharray:none;paint-order:markers stroke fill"
       d="M 32 13.101562 A 18.897638 18.897638 0 0 0 13.101562 32 A 18.897638 18.897638 0 0 0 32 50.898438 A 18.897638 18.897638 0 0 0 50.898438 32 A 18.897638 18.897638 0 0 0 32 13.101562 z M 32 23.287109 A 8.7125655 8.7125655 0 0 1 40.712891 32 A 8.7125655 8.7125655 0 0 1 32 40.712891 A 8.7125655 8.7125655 0 0 1 23.287109 32 A 8.7125655 8.7125655 0 0 1 32 23.287109 z "
       transform="matrix(0.26458333,0,0,0.26458333,0,280.06665)"
       id="circle827" />
  </g>
  <g
     inkscape:label="active-flag copy"
     id="g825"
     inkscape:groupmode="layer"
     style="display:none">
    <circle
       r="2.3051996"
       cy="8.4666662"
       cx="8.4666662"
       id="circle823"
       style="opacity:1;fill:#000000;fill-opacity:1;fill-rule:nonzero;stroke:none;stroke-width:8;stroke-miterlimit:4.0999999;stroke-dasharray:none;paint-order:markers stroke fill" />
  </g>
</svg>
